<svg xmlns="http://www.w3.org/2000/svg" width="199.514" height="103.753" viewBox="0 0 199.514 103.753">
  <g id="biscaytik-logo" transform="translate(-28.24 -77.046)">
    <g id="Biscaytik_logo" transform="translate(28 77)">
      <g id="Group">
        <path id="Shape" d="M49.9,37.4c4.383,0,7.481-2.085,7.406-6.858-.05-2.613-1.814-3.617-5.718-3.617H45.693L44.005,37.4ZM47.355,55.04c4.836,0,8.363-2.211,8.262-7.511-.05-2.839-1.889-4.07-6.247-4.07h-6.3L41.184,55.04ZM34.106,61.5c-.982,0-1.411-.4-1.26-1.407l6.1-38.234A1.348,1.348,0,0,1,40.5,20.524H52.343c7.884,0,12.645,2.688,12.746,8.491.075,4.472-1.94,8.968-6.7,10.827,2.7.8,4.736,3.442,4.811,7.612.151,9.194-6.222,14.017-15.869,14.017H34.106Z"/>
        <path id="Shape-2" data-name="Shape" d="M78.992,25.724c-.151.929-.5,1.331-1.385,1.331H72.771c-.882,0-1.234-.4-1.133-1.331l.63-3.844C72.418,21,72.821,20.6,73.7,20.6h4.786c.932,0,1.285.4,1.133,1.281ZM73.426,60.164c-.151.879-.5,1.281-1.385,1.281H67.38c-.882,0-1.285-.4-1.134-1.281l4.584-28.638c.151-.879.554-1.281,1.436-1.281h4.66c.882,0,1.234.4,1.083,1.281Z"/>
        <path id="Shape-3" data-name="Shape" d="M103.5,34.315a3.139,3.139,0,0,1-.856,1.758L87.859,55.215H99.068c.882,0,1.285.352,1.134,1.231l-.63,3.718c-.151.879-.5,1.281-1.385,1.281H79.521c-.932,0-1.285-.4-1.133-1.281l.428-2.788a3.665,3.665,0,0,1,.781-1.633L94.559,36.526H83.829c-.882,0-1.234-.4-1.133-1.281l.63-3.718a1.27,1.27,0,0,1,1.436-1.281h18.085c.932,0,1.285.4,1.134,1.281Z"/>
        <path id="Shape-4" data-name="Shape" d="M121.99,61.445a1.809,1.809,0,0,1-1.763-1.055L113.7,47.7l-1.94,12.46c-.151.879-.5,1.281-1.436,1.281h-4.609c-.882,0-1.285-.4-1.184-1.281L110.68,21.7a1.257,1.257,0,0,1,1.436-1.231h4.609c.882,0,1.361.352,1.184,1.231l-3,18.615,8.992-9.194a2.33,2.33,0,0,1,1.965-.879h5.844c1.058,0,1.184.93.378,1.683L119.647,44.213l8.439,15.65a1.024,1.024,0,0,1-.907,1.583Z"/>
        <path id="Shape-5" data-name="Shape" d="M149.27,46.775c-7.179.4-11.109,1.758-11.033,6.808.025,1.809,1.158,3.014,3.451,3.014,4.08,0,6.473-2.914,7.053-6.531Zm4.785,13.389c-.151.879-.5,1.281-1.385,1.281h-3.9c-.882,0-1.235-.4-1.184-1.105l.252-2.688a10.329,10.329,0,0,1-8.564,4.2c-4.963,0-7.935-2.914-8.011-7.335-.176-10.35,9.068-11.932,18.691-12.284l.3-1.909c.579-3.19-.731-4.647-4.584-4.647a22.157,22.157,0,0,0-7.557,1.457c-.756.226-1.411-.05-1.36-.879l-.177-3.366a1.6,1.6,0,0,1,1.134-1.507,26.914,26.914,0,0,1,9.32-1.633c7,0,10.327,2.613,10.4,7.737a17.053,17.053,0,0,1-.177,2.688Z"/>
        <path id="Shape-6" data-name="Shape" d="M172.72,25.724c-.151.929-.5,1.331-1.385,1.331H166.5c-.882,0-1.235-.4-1.134-1.331l.63-3.844c.151-.879.554-1.281,1.436-1.281h4.786c.932,0,1.284.4,1.133,1.281Zm-5.592,34.441c-.151.879-.5,1.281-1.385,1.281h-4.66c-.881,0-1.285-.4-1.133-1.281l4.584-28.638c.151-.879.554-1.281,1.436-1.281h4.66c.881,0,1.234.4,1.083,1.281Z"/>
        <path id="Shape-7" data-name="Shape" d="M191.562,46.75c-7.179.4-11.109,1.758-11.033,6.808.025,1.809,1.159,3.014,3.451,3.014,4.08,0,6.5-2.914,7.053-6.531Zm4.786,13.389c-.152.879-.5,1.281-1.386,1.281h-3.9c-.882,0-1.234-.4-1.184-1.105l.252-2.688a10.328,10.328,0,0,1-8.564,4.2c-4.962,0-7.935-2.914-8.01-7.335-.177-10.35,9.068-11.932,18.69-12.284l.327-1.934c.58-3.19-.73-4.647-4.584-4.647a22.032,22.032,0,0,0-7.557,1.457c-.755.226-1.41-.05-1.36-.879l-.176-3.366a1.6,1.6,0,0,1,1.133-1.507,26.916,26.916,0,0,1,9.32-1.633c7,0,10.328,2.613,10.4,7.737a14.458,14.458,0,0,1-.176,2.688Z"/>
        <path id="Shape-8" data-name="Shape" d="M29.194,29.567a68.158,68.158,0,0,0,5.365-5.853,2.689,2.689,0,0,0,.705-2.387A1.761,1.761,0,0,0,34.232,19.8a4.487,4.487,0,0,0-2.469-.075,3.532,3.532,0,0,1-2.141-.075,1.771,1.771,0,0,1-.882-2.537,11.383,11.383,0,0,1,2.771-2.713A11.8,11.8,0,0,0,34.836,10.9c.806-1.557,0-2.185-.579-2.487a3.618,3.618,0,0,0-1.411-.251,4.688,4.688,0,0,1-1.033-.2c-.655-.327-.731-.955-.3-1.758a13.617,13.617,0,0,1,.857-1.181,15.247,15.247,0,0,0,1.108-1.733A2.539,2.539,0,0,0,32.62.2c-1.184-.6-2.972.678-4.458,1.708-1.285.829-2.317,1.532-2.947,1.206-.554-.3-.579-.754-.68-1.156-.1-.377-.1-.729-.479-.929-.932-.477-2.443.653-3.652,2.587a27.27,27.27,0,0,0-1.436,2.814,14.912,14.912,0,0,1-1.184,2.035c-1.058,1.658-1.536,2.035-2.343,1.557A5.6,5.6,0,0,1,13.8,8.265a5.417,5.417,0,0,0-1.058-1.08c-.882-.528-2.191-.226-3.174,1.13C7.254,11.53,7.1,15.273,7.053,17.861a6.81,6.81,0,0,1-.4,2.763c-.327.452-.957.427-1.688-.126a7.925,7.925,0,0,1-.957-.93,5.732,5.732,0,0,0-.882-1c-.4-.3-1.814-.829-2.393-.1-.932,1.13-.353,5.979.227,8.215a36.868,36.868,0,0,0,3.98,9.244c1.008,1.633,1.587,2.537,1.209,3.065-.4.528-1.033.251-1.612-.075-.756-.5-1.562-.93-2.217-.05-1.234,1.557,2.217,6.531,6.272,9.5A36.166,36.166,0,0,0,14.836,52c2.166,1,4.207,1.909,6.045,2.889C9.5,27.457,25.39,10.7,24.887,10.35c.579.126-14.912,18.74-.479,45.569a31.486,31.486,0,0,0,4.736,5.7l.025-.025c-.857-1.331-4.887-8.943.353-19.9,1.083-2.336,2.242-4.421,1.814-5.527-.529-1.382-1.889-1-3.274-.553a3.372,3.372,0,0,1-2.393.276,1.385,1.385,0,0,1-.705-.829c-.1-.854.831-1.859,1.461-2.562.327-.4,1.436-1.558,2.771-2.939" fill="#b31117"/>
      </g>
      <path id="Shape-9" data-name="Shape" d="M144.584,71.845l-5.415,25.724h1.637L142.67,88.7h.63a1.307,1.307,0,0,1,.705.126,1.414,1.414,0,0,1,.453.427l5.164,7.913a1.3,1.3,0,0,0,.3.326.886.886,0,0,0,.4.075h1.411l-5.693-8.893c-.1-.151-.176-.3-.277-.427a1.169,1.169,0,0,0-.378-.327,1.952,1.952,0,0,0,.378-.251c.126-.1.252-.2.4-.327l8.716-7.36h-1.461a.994.994,0,0,0-.5.126,3.891,3.891,0,0,0-.428.327l-7.91,6.682a1.519,1.519,0,0,1-.5.327,1.477,1.477,0,0,1-.529.075H142.9l3.3-15.675Zm-6.02,1.457a1.275,1.275,0,0,0-.3-.5,1.168,1.168,0,0,0-.453-.327,1.382,1.382,0,0,0-.555-.126,1.5,1.5,0,0,0-.579.126,1.668,1.668,0,0,0-.5.352,2.4,2.4,0,0,0-.378.5,1.542,1.542,0,0,0-.176.6,1.247,1.247,0,0,0,.076.6,1.476,1.476,0,0,0,.277.477,1.167,1.167,0,0,0,.453.327,1.379,1.379,0,0,0,.554.126,1.472,1.472,0,0,0,.554-.126,2.3,2.3,0,0,0,.529-.327,2.2,2.2,0,0,0,.378-.477,1.543,1.543,0,0,0,.177-.6A1.061,1.061,0,0,0,138.564,73.3Zm-3.4,6.682-3.678,17.585h1.637L136.8,79.984Zm-13.5,17.057a2.918,2.918,0,0,0,2.217.8,5.209,5.209,0,0,0,2.066-.452,5.719,5.719,0,0,0,1.813-1.206l-.252-.754a.548.548,0,0,0-.1-.126.217.217,0,0,0-.152-.05.591.591,0,0,0-.327.176c-.151.126-.353.251-.579.4a4.266,4.266,0,0,1-.832.4,2.748,2.748,0,0,1-1.058.176,1.889,1.889,0,0,1-1.36-.5,2.156,2.156,0,0,1-.4-1.658.627.627,0,0,1,.025-.2c.026-.1.051-.251.076-.427.05-.2.1-.452.151-.754s.151-.7.252-1.181l2.091-9.923H130.4l.252-1.256h-5.113l1.41-6.707h-.806a.416.416,0,0,0-.3.126.475.475,0,0,0-.176.276l-1.713,6.305-2.8.2-.151.729c-.026.226.1.327.327.327h2.317l-2.09,10c-.1.528-.2.955-.252,1.281a7.3,7.3,0,0,0-.151.829c-.026.2-.051.377-.076.477a1.046,1.046,0,0,0-.025.251A2.992,2.992,0,0,0,121.662,97.041Zm-1.738-17.057H118.64a.78.78,0,0,0-.328.075.735.735,0,0,0-.277.276l-8.312,13.741q-.151.264-.3.527c-.1.176-.177.352-.277.528,0-.176-.026-.352-.026-.528a3.765,3.765,0,0,0-.05-.527l-2.519-13.691a.568.568,0,0,0-.151-.3.457.457,0,0,0-.353-.1h-1.309l3.249,16.931-4.333,6.883h1.184a.9.9,0,0,0,.781-.5Zm-31.864,15.1a6.727,6.727,0,0,1-.479-3.693,11.7,11.7,0,0,1,.554-2.638,12.716,12.716,0,0,1,2.746-4.572A11.246,11.246,0,0,1,92.846,82.5a9.97,9.97,0,0,1,2.192-1.105,6.757,6.757,0,0,1,2.343-.4,7.106,7.106,0,0,1,2.242.352L98.111,88.5a22.628,22.628,0,0,1-1.688,3.215A14.622,14.622,0,0,1,94.534,94.2a8.328,8.328,0,0,1-2.015,1.608,4.2,4.2,0,0,1-2.04.578A2.521,2.521,0,0,1,88.061,95.082Zm13.375-14.52a6.83,6.83,0,0,0-1.763-.653,9.687,9.687,0,0,0-1.965-.176,9.235,9.235,0,0,0-2.846.452,10.877,10.877,0,0,0-2.67,1.281A13.281,13.281,0,0,0,89.824,83.4a14.844,14.844,0,0,0-1.914,2.437,14.3,14.3,0,0,0-1.36,2.788,12.4,12.4,0,0,0-.655,3.015,10.447,10.447,0,0,0,.05,2.537,5.32,5.32,0,0,0,.68,1.934,3.544,3.544,0,0,0,1.285,1.231,4.065,4.065,0,0,0,1.914.427,5.374,5.374,0,0,0,2.141-.452A8.115,8.115,0,0,0,94,96.037a13.021,13.021,0,0,0,1.889-1.984,21.638,21.638,0,0,0,1.713-2.562l-1.058,5.527a.571.571,0,0,0,.1.4.544.544,0,0,0,.453.151h.806ZM83.451,94.354l-.327-.452a.44.44,0,0,0-.353-.176.868.868,0,0,0-.453.2c-.176.126-.378.3-.63.5s-.529.427-.831.653a6.263,6.263,0,0,1-1.058.653,6.651,6.651,0,0,1-1.36.5,7.063,7.063,0,0,1-1.688.2,4.5,4.5,0,0,1-2.015-.427A3.374,3.374,0,0,1,73.4,94.831a4.859,4.859,0,0,1-.705-1.809,8.365,8.365,0,0,1-.076-2.261,12.98,12.98,0,0,1,.856-3.668A12.234,12.234,0,0,1,75.239,84a8.415,8.415,0,0,1,2.418-2.135,5.55,5.55,0,0,1,2.846-.8,4.691,4.691,0,0,1,1.713.276,5.933,5.933,0,0,1,1.083.6,4.944,4.944,0,0,1,.63.6.576.576,0,0,0,.4.276.568.568,0,0,0,.4-.2l.554-.578a5.234,5.234,0,0,0-.806-1,4.222,4.222,0,0,0-1.007-.754,4.847,4.847,0,0,0-1.234-.477,5.937,5.937,0,0,0-1.562-.176,7.389,7.389,0,0,0-2.468.427A8.649,8.649,0,0,0,76,81.266a9.984,9.984,0,0,0-1.914,1.809,14.519,14.519,0,0,0-1.536,2.286,15,15,0,0,0-1.083,2.613,13.061,13.061,0,0,0-.529,2.763,9.365,9.365,0,0,0,.126,2.814,5.766,5.766,0,0,0,.932,2.236,4.66,4.66,0,0,0,1.738,1.457,5.9,5.9,0,0,0,2.594.528,10.3,10.3,0,0,0,1.788-.151,7.27,7.27,0,0,0,1.688-.528,9.459,9.459,0,0,0,1.738-1.055A17.652,17.652,0,0,0,83.451,94.354ZM69.773,81.542a4.938,4.938,0,0,0-1.839-1.382,6.484,6.484,0,0,0-2.544-.452,6.807,6.807,0,0,0-4.433,1.583,5.9,5.9,0,0,0-1.385,1.683,4.67,4.67,0,0,0-.6,1.959,3.353,3.353,0,0,0,.2,1.558,3.056,3.056,0,0,0,.781,1.08,4.331,4.331,0,0,0,1.184.754,13.239,13.239,0,0,0,1.385.553c.479.176.932.352,1.411.528a5.531,5.531,0,0,1,1.209.653,2.755,2.755,0,0,1,.806.9,2.147,2.147,0,0,1,.227,1.306,4.446,4.446,0,0,1-.479,1.683,5.178,5.178,0,0,1-1.058,1.382,4.92,4.92,0,0,1-1.562.955,5.429,5.429,0,0,1-1.94.352,5.041,5.041,0,0,1-1.788-.276,3.952,3.952,0,0,1-1.133-.628,3.375,3.375,0,0,1-.68-.628.653.653,0,0,0-.428-.276.508.508,0,0,0-.277.075,1.628,1.628,0,0,0-.227.2l-.453.6a6.125,6.125,0,0,0,1.839,1.558,5.8,5.8,0,0,0,2.821.6,7.114,7.114,0,0,0,2.67-.5,7.493,7.493,0,0,0,2.116-1.306,7.026,7.026,0,0,0,1.461-1.884,5.766,5.766,0,0,0,.655-2.186,3.257,3.257,0,0,0-.2-1.608,3.009,3.009,0,0,0-.806-1.13,5.356,5.356,0,0,0-1.184-.779,13.393,13.393,0,0,0-1.385-.578c-.479-.176-.957-.352-1.411-.528a5.476,5.476,0,0,1-1.209-.628,2.97,2.97,0,0,1-.831-.854,1.91,1.91,0,0,1-.227-1.231,3.232,3.232,0,0,1,.479-1.407,4.543,4.543,0,0,1,1.033-1.155,5.456,5.456,0,0,1,1.461-.8,5.06,5.06,0,0,1,1.738-.3,4.876,4.876,0,0,1,1.612.226,4.146,4.146,0,0,1,1.058.5,3.975,3.975,0,0,1,.655.5.664.664,0,0,0,.4.226.432.432,0,0,0,.4-.251ZM56.5,73.3a1.28,1.28,0,0,0-.3-.5,1.167,1.167,0,0,0-.453-.327,1.378,1.378,0,0,0-.554-.126,1.5,1.5,0,0,0-.579.126,1.665,1.665,0,0,0-.5.352,2.389,2.389,0,0,0-.378.5,1.533,1.533,0,0,0-.176.6,1.249,1.249,0,0,0,.076.6,1.487,1.487,0,0,0,.277.477,1.165,1.165,0,0,0,.453.327,1.375,1.375,0,0,0,.554.126,1.722,1.722,0,0,0,.579-.126,2.312,2.312,0,0,0,.529-.327,2.25,2.25,0,0,0,.378-.477,1.534,1.534,0,0,0,.176-.6A1.313,1.313,0,0,0,56.5,73.3Zm-3.4,6.682L49.421,97.569h1.637l3.678-17.585ZM44.912,82.4a6.031,6.031,0,0,1,.579,3.693,13.758,13.758,0,0,1-.428,2.361,15.547,15.547,0,0,1-.856,2.361A18.519,18.519,0,0,1,43,93a9.2,9.2,0,0,1-1.562,1.809,6.856,6.856,0,0,1-1.864,1.231,5.167,5.167,0,0,1-2.116.452,6.589,6.589,0,0,1-1.209-.126,4.592,4.592,0,0,1-1.108-.427,4.057,4.057,0,0,1-.982-.779,3.968,3.968,0,0,1-.756-1.181l1.058-5.024A22.716,22.716,0,0,1,36.2,85.737a15.963,15.963,0,0,1,1.99-2.487A8.608,8.608,0,0,1,40.3,81.668a4.415,4.415,0,0,1,2.091-.553A2.6,2.6,0,0,1,44.912,82.4ZM31.864,97.569a.7.7,0,0,0,.453-.126.86.86,0,0,0,.227-.427l.5-1.909a4.492,4.492,0,0,0,1.814,2.035,5.3,5.3,0,0,0,2.7.678,6.472,6.472,0,0,0,2.468-.5,8.486,8.486,0,0,0,2.217-1.357,12.238,12.238,0,0,0,1.889-2.035,15.474,15.474,0,0,0,1.486-2.487,17.805,17.805,0,0,0,1.058-2.713,13.691,13.691,0,0,0,.529-2.763,10.615,10.615,0,0,0-.075-2.562,5.651,5.651,0,0,0-.705-1.96,3.758,3.758,0,0,0-1.335-1.256,4.085,4.085,0,0,0-1.99-.427,5.465,5.465,0,0,0-2.141.452,9.62,9.62,0,0,0-2.091,1.256A14.447,14.447,0,0,0,36.9,83.426a17.4,17.4,0,0,0-1.763,2.537L38.086,71.9H36.448L31.083,97.619h.781Z" fill="#b31117"/>
    </g>
  </g>
</svg>
