<svg xmlns="http://www.w3.org/2000/svg" width="35.072" height="61.573" viewBox="0 0 35.072 61.573">
  <path id="Shape" d="M29.194,29.567a68.16,68.16,0,0,0,5.365-5.853,2.689,2.689,0,0,0,.7-2.387A1.761,1.761,0,0,0,34.232,19.8a4.487,4.487,0,0,0-2.469-.075,3.532,3.532,0,0,1-2.141-.075,1.771,1.771,0,0,1-.882-2.537A11.383,11.383,0,0,1,31.511,14.4a11.8,11.8,0,0,0,3.325-3.5c.806-1.557,0-2.185-.579-2.487a3.618,3.618,0,0,0-1.411-.251,4.688,4.688,0,0,1-1.033-.2c-.655-.327-.731-.955-.3-1.758a13.618,13.618,0,0,1,.857-1.181A15.247,15.247,0,0,0,33.478,3.29,2.539,2.539,0,0,0,32.62.2c-1.184-.6-2.972.678-4.458,1.708-1.285.829-2.317,1.532-2.947,1.206-.554-.3-.579-.754-.68-1.156-.1-.377-.1-.729-.479-.929-.932-.477-2.443.653-3.652,2.587A27.27,27.27,0,0,0,18.968,6.43a14.912,14.912,0,0,1-1.184,2.035c-1.058,1.658-1.536,2.035-2.343,1.557A5.6,5.6,0,0,1,13.8,8.265a5.417,5.417,0,0,0-1.058-1.08c-.882-.528-2.191-.226-3.174,1.13C7.254,11.53,7.1,15.273,7.053,17.861a6.81,6.81,0,0,1-.4,2.763c-.327.452-.957.427-1.688-.126a7.925,7.925,0,0,1-.957-.93,5.732,5.732,0,0,0-.882-1c-.4-.3-1.814-.829-2.393-.1C-.2,19.6.38,24.447.96,26.683a36.868,36.868,0,0,0,3.98,9.244c1.008,1.633,1.587,2.537,1.209,3.065-.4.528-1.033.251-1.612-.075-.756-.5-1.562-.93-2.217-.05-1.234,1.557,2.217,6.531,6.272,9.5A36.166,36.166,0,0,0,14.836,52c2.166,1,4.207,1.909,6.045,2.889C9.5,27.457,25.39,10.7,24.887,10.35c.579.126-14.912,18.74-.479,45.569a31.486,31.486,0,0,0,4.736,5.7l.025-.025c-.857-1.331-4.887-8.943.353-19.9,1.083-2.336,2.242-4.421,1.814-5.527-.529-1.382-1.889-1-3.274-.553a3.372,3.372,0,0,1-2.393.276,1.385,1.385,0,0,1-.7-.829c-.1-.854.831-1.859,1.461-2.562.327-.4,1.436-1.558,2.771-2.939" transform="translate(-0.242 -0.046)" fill="#fff"/>
</svg>
