<svg xmlns="http://www.w3.org/2000/svg" width="12" height="19.796" viewBox="0 0 12 19.796">
  <g id="Grupo_1" data-name="Grupo 1" transform="translate(-954 -523)">
    <path id="Trazado_1" data-name="Trazado 1" d="M7.017,10.4a.786.786,0,0,1-.563-.234L1.139,4.849A.8.8,0,0,1,2.266,3.754l4.752,4.72,4.752-4.72A.8.8,0,0,1,12.9,4.817L7.581,10.132a.787.787,0,0,1-.563.266Z" transform="translate(953 532.398)"/>
    <path id="Trazado_2" data-name="Trazado 2" d="M7.017,10.4a.786.786,0,0,1-.563-.234L1.139,4.849A.8.8,0,0,1,2.266,3.754l4.752,4.72,4.752-4.72A.8.8,0,0,1,12.9,4.817L7.581,10.132a.787.787,0,0,1-.563.266Z" transform="translate(967 533.398) rotate(180)"/>
  </g>
</svg>
