<svg width="24" height="24" viewBox="0 0 24 24" fill="none" xmlns="http://www.w3.org/2000/svg">
<path d="M17.5877 2.64393C17.7827 2.91018 17.7264 3.28518 17.4602 3.48393L13.1739 6.62643C12.4577 7.15143 12.0077 7.98018 12.0077 8.85018C12.0077 9.55518 12.2889 10.2302 12.7877 10.7289L13.2752 11.2202C13.7739 11.7189 14.4489 12.0002 15.1539 12.0002C16.0202 12.0002 16.8527 11.5502 17.3777 10.8339L20.5202 6.54768C20.7152 6.28143 21.0902 6.22143 21.3602 6.42018C21.6302 6.61893 21.6864 6.99018 21.4877 7.26018L18.3452 11.5427C17.6139 12.5402 16.4364 13.2002 15.1539 13.2002C14.2164 13.2002 13.3127 12.8589 12.6114 12.2439L3.42766 21.4239C3.19516 21.6564 2.81266 21.6564 2.58016 21.4239C2.34766 21.1914 2.34766 20.8089 2.58016 20.5764L11.7602 11.3927C11.1452 10.6914 10.8039 9.78768 10.8039 8.85018C10.8039 7.56768 11.4639 6.39018 12.4614 5.65893L16.7477 2.51643C17.0139 2.32143 17.3889 2.37768 17.5877 2.64393ZM19.6277 4.37268C19.8602 4.60518 19.8602 4.98768 19.6277 5.22018L15.4277 9.42018C15.1952 9.65268 14.8127 9.65268 14.5802 9.42018C14.3477 9.18768 14.3477 8.80518 14.5802 8.57268L18.7802 4.37268C19.0127 4.14018 19.3952 4.14018 19.6277 4.37268ZM9.06766 8.21268C8.99641 8.79393 9.01516 9.38643 9.12766 9.96768L4.23391 5.07768C3.20641 6.48768 3.32641 8.47518 4.59766 9.74643L7.73266 12.8777L6.88516 13.7252L3.75391 10.5902C1.87891 8.71518 1.87891 5.67768 3.75391 3.80268L3.78391 3.77268C4.01641 3.54018 4.39891 3.54018 4.63141 3.77268L9.06766 8.21268ZM20.5802 21.4239L14.2277 15.0714L14.1714 14.9027C14.7077 14.9927 15.2552 15.0039 15.7914 14.9364L21.4277 20.5764C21.6602 20.8089 21.6602 21.1914 21.4277 21.4239C21.1952 21.6564 20.8127 21.6564 20.5802 21.4239Z" fill="black"/>
</svg>
